<?xml version="1.0" standalone="no"?><!DOCTYPE svg PUBLIC "-//W3C//DTD SVG 1.1//EN" "http://www.w3.org/Graphics/SVG/1.1/DTD/svg11.dtd"><svg class="icon" width="200px" height="200.00px" viewBox="0 0 1024 1024" version="1.1" xmlns="http://www.w3.org/2000/svg"><path d="M718.9 203c24 0 43.4 19.4 43.4 43.3v264.9l43.9-0.3V246.3c0-48.2-39.1-87.2-87.4-87.2H279.2c-48.3 0-87.4 39-87.4 87.2v528.9c0 48.2 39.1 87.2 87.4 87.2H499v-43.9H279.2c-24 0-43.4-19.4-43.4-43.3V246.3c0-23.8 19.5-43.3 43.4-43.3h439.7M681.7 596.7c29.6 0 57.5 11.5 78.4 32.5 20.9 20.9 32.5 48.8 32.5 78.4S781 765 760.1 786c-20.9 20.9-48.8 32.5-78.4 32.5S624.2 807 603.3 786c-20.9-20.9-32.5-48.8-32.5-78.4s11.5-57.5 32.5-78.4c20.9-21 48.8-32.5 78.4-32.5m0-44c-85.5 0-154.8 69.3-154.8 154.8s69.3 154.8 154.8 154.8S836.5 793 836.5 707.5s-69.3-154.8-154.8-154.8zM660.2 629.6h43.9v97.8h-43.9v-97.8zM660.2 683.5H758v43.9h-97.8v-43.9zM675 313.2c0 12.3-10 22.2-22.2 22.2H345.6c-12.3 0-22.2-10-22.2-22.2 0-12.3 10-22.2 22.2-22.2h307.2c12.3 0 22.2 10 22.2 22.2zM543.2 489.3c0 12.3-10 22.2-22.2 22.2H344.9c-12.3 0-22.2-10-22.2-22.2 0-12.3 10-22.2 22.2-22.2H521c12.2 0 22.2 9.9 22.2 22.2z m-88.3 175.5c0 12.3-10 22.2-22.2 22.2h-87.1c-12.3 0-22.2-10-22.2-22.2 0-12.3 10-22.2 22.2-22.2h87.1c12.2 0 22.2 9.9 22.2 22.2z" /></svg>